<svg width="696" height="217" viewBox="0 0 696 217" fill="none" xmlns="http://www.w3.org/2000/svg">
<path d="M172.321 96.1874C137.42 75.4169 79.8512 73.5075 46.5335 83.6406C41.1818 85.2672 35.5246 82.2413 33.9043 76.8793C32.283 71.5145 35.2997 65.8484 40.6533 64.2188C78.9009 52.5855 142.479 54.8321 182.658 78.7324C187.471 81.5961 189.048 87.8238 186.196 92.6377C183.341 97.4603 177.122 99.051 172.321 96.1874ZM171.178 126.95C168.729 130.932 163.534 132.181 159.566 129.736C130.47 111.814 86.0998 106.621 51.6758 117.092C47.2123 118.443 42.4967 115.922 41.1411 111.456C40.4948 109.309 40.7245 106.993 41.7797 105.016C42.8349 103.038 44.6295 101.561 46.7701 100.907C86.094 88.9481 134.981 94.7395 168.4 115.32C172.368 117.769 173.617 122.978 171.178 126.95ZM157.929 156.494C157.468 157.253 156.862 157.914 156.145 158.438C155.429 158.962 154.617 159.339 153.755 159.548C152.893 159.757 151.999 159.794 151.123 159.656C150.247 159.518 149.406 159.208 148.65 158.745C123.224 143.173 91.2218 139.656 53.5328 148.283C52.6692 148.481 51.7752 148.506 50.9018 148.358C50.0284 148.21 49.1927 147.89 48.4425 147.418C47.6923 146.946 47.0423 146.33 46.5296 145.606C46.0168 144.883 45.6514 144.065 45.4543 143.199C45.2557 142.333 45.2295 141.437 45.3772 140.561C45.5249 139.685 45.8435 138.847 46.3149 138.095C46.7862 137.343 47.4011 136.691 48.1241 136.177C48.8472 135.663 49.6643 135.298 50.5287 135.101C91.7725 125.654 127.151 129.719 155.69 147.195C156.446 147.658 157.104 148.266 157.626 148.984C158.148 149.702 158.524 150.516 158.732 151.379C158.94 152.243 158.976 153.139 158.839 154.017C158.701 154.894 158.391 155.736 157.929 156.494ZM108.272 0C48.4768 0 0 48.5761 0 108.498C0 168.426 48.4768 217 108.273 217C168.072 217 216.548 168.426 216.548 108.498C216.548 48.5771 168.072 0 108.272 0ZM294.575 100.165C275.88 95.6967 272.553 92.5609 272.553 85.9727C272.553 79.7488 278.4 75.5617 287.096 75.5617C295.526 75.5617 303.884 78.7421 312.648 85.2905C312.914 85.4888 313.245 85.5675 313.573 85.516C313.734 85.4919 313.889 85.4351 314.028 85.3491C314.167 85.263 314.287 85.1495 314.381 85.0155L323.508 72.1209C323.884 71.5903 323.782 70.8576 323.276 70.4524C312.846 62.0665 301.101 57.9892 287.373 57.9892C267.188 57.9892 253.088 70.1259 253.088 87.4954C253.088 106.12 265.251 112.713 286.268 117.805C304.157 121.935 307.177 125.392 307.177 131.577C307.177 138.43 301.073 142.69 291.248 142.69C280.336 142.69 271.435 139.007 261.478 130.367C261.226 130.158 260.905 130.053 260.579 130.073C260.25 130.1 259.949 130.254 259.74 130.506L249.504 142.712C249.075 143.218 249.129 143.975 249.626 144.413C261.211 154.777 275.458 160.252 290.833 160.252C312.585 160.252 326.638 148.341 326.638 129.909C326.638 114.33 317.352 105.714 294.575 100.165ZM391.639 121.043C391.639 134.197 383.552 143.377 371.974 143.377C360.528 143.377 351.894 133.78 351.894 121.043C351.894 108.307 360.528 98.709 371.974 98.709C383.366 98.709 391.639 108.1 391.639 121.043ZM375.849 81.6884C366.421 81.6884 358.689 85.4101 352.312 93.0341V84.452C352.312 83.7747 351.763 83.2227 351.087 83.2227H334.349C333.673 83.2227 333.126 83.7747 333.126 84.452V179.812C333.126 180.49 333.673 181.042 334.349 181.042H351.086C351.763 181.042 352.312 180.49 352.312 179.812V149.712C358.69 156.885 366.424 160.389 375.849 160.389C393.367 160.389 411.101 146.875 411.101 121.043C411.101 95.205 393.367 81.6884 375.849 81.6884ZM456.558 143.514C444.558 143.514 435.512 133.853 435.512 121.043C435.512 108.178 444.245 98.844 456.28 98.844C468.357 98.844 477.465 108.505 477.465 121.324C477.465 134.185 468.672 143.514 456.558 143.514ZM456.558 81.6884C433.997 81.6884 416.323 99.0967 416.323 121.325C416.323 143.31 433.876 160.534 456.28 160.534C478.921 160.534 496.65 143.185 496.65 121.043C496.65 98.9752 479.043 81.6884 456.558 81.6884ZM544.826 83.2227H526.406V64.35C526.406 63.6727 525.862 63.1208 525.185 63.1208H508.448C507.771 63.1208 507.22 63.6727 507.22 64.35V83.2227H499.172C498.498 83.2227 497.952 83.7747 497.952 84.452V98.8674C497.952 99.5447 498.498 100.097 499.172 100.097H507.22V137.399C507.22 152.473 514.707 160.118 529.474 160.118C535.478 160.118 540.46 158.875 545.156 156.207C545.536 155.994 545.773 155.582 545.773 155.143V141.415C545.774 141.205 545.72 140.999 545.619 140.816C545.517 140.633 545.371 140.479 545.193 140.369C545.015 140.258 544.812 140.195 544.603 140.186C544.394 140.176 544.187 140.22 544 140.314C540.775 141.94 537.658 142.69 534.174 142.69C528.804 142.69 526.406 140.247 526.406 134.77V100.097H544.827C545.504 100.097 546.048 99.5447 546.048 98.8674V84.452C546.048 83.7747 545.504 83.2227 544.827 83.2227H544.826ZM609.003 83.2956V80.9781C609.003 74.1585 611.611 71.118 617.463 71.118C620.954 71.118 623.757 71.8128 626.896 72.8623C627.08 72.9236 627.276 72.9402 627.468 72.9105C627.66 72.8809 627.842 72.8059 627.999 72.6918C628.157 72.5777 628.284 72.4277 628.372 72.2542C628.46 72.0808 628.506 71.8888 628.505 71.6943V57.5577C628.506 57.2946 628.423 57.0382 628.267 56.8264C628.111 56.6146 627.891 56.4588 627.64 56.3819C624.324 55.3927 620.081 54.3773 613.727 54.3773C598.265 54.3773 590.094 63.1033 590.094 79.5992V83.1489H582.053C581.728 83.1494 581.416 83.2788 581.186 83.5089C580.955 83.7391 580.825 84.0512 580.824 84.3771V98.8674C580.824 99.5437 581.376 100.098 582.053 100.098H590.094V157.635C590.094 158.312 590.64 158.864 591.315 158.864H608.053C608.728 158.864 609.279 158.312 609.279 157.635V100.097H624.909L648.85 157.618C646.131 163.662 643.459 164.864 639.811 164.864C636.861 164.864 633.756 163.982 630.58 162.242C630.432 162.162 630.27 162.112 630.102 162.097C629.935 162.081 629.766 162.099 629.606 162.15C629.286 162.263 629.017 162.501 628.882 162.812L623.209 175.285C623.078 175.567 623.06 175.888 623.158 176.183C623.255 176.478 623.462 176.724 623.734 176.872C629.657 180.086 635.005 181.458 641.612 181.458C653.972 181.458 660.804 175.689 666.827 160.168L695.868 84.9689C695.94 84.7832 695.966 84.5826 695.944 84.3846C695.921 84.1865 695.851 83.9969 695.739 83.8321C695.627 83.6673 695.477 83.5322 695.302 83.4386C695.126 83.3449 694.93 83.2955 694.731 83.2946H677.306C677.051 83.2948 676.803 83.3741 676.595 83.5217C676.387 83.6693 676.23 83.8779 676.145 84.1186L658.294 135.214L638.741 84.0846C638.653 83.8521 638.497 83.652 638.293 83.5109C638.088 83.3697 637.846 83.2943 637.598 83.2946L609.003 83.2956ZM571.798 83.2227H555.058C554.383 83.2227 553.832 83.7747 553.832 84.452V157.634C553.832 158.311 554.383 158.863 555.058 158.863H571.798C572.473 158.863 573.024 158.311 573.024 157.634V84.452C573.024 83.7747 572.472 83.2227 571.798 83.2227ZM563.514 49.9006C556.882 49.9006 551.501 55.28 551.501 61.9246C551.501 68.5741 556.882 73.9603 563.514 73.9603C570.142 73.9603 575.518 68.5741 575.518 61.9246C575.518 55.28 570.142 49.9006 563.514 49.9006Z" fill="#191414"/>
</svg>
